{
	"asset":{
		"generator":"Khronos glTF Blender I/O v4.3.47",
		"version":"2.0"
	},
	"scene":0,
	"scenes":[
		{
			"name":"Scene",
			"nodes":[
				13
			]
		}
	],
	"nodes":[
		{
			"mesh":0,
			"name":"Plane__0"
		},
		{
			"children":[
				0
			],
			"name":"Plane",
			"rotation":[
				1,
				0,
				0,
				7.549800784545369e-08
			],
			"scale":[
				99.99999237060547,
				100,
				99.99999237060547
			]
		},
		{
			"mesh":1,
			"name":"Plane.001__0"
		},
		{
			"children":[
				2
			],
			"name":"Plane.001",
			"rotation":[
				1,
				0,
				0,
				7.549777336635088e-08
			],
			"scale":[
				99.99999237060547,
				100,
				135.55398559570312
			],
			"translation":[
				-3.390010169823654e-05,
				3.6510581970214844,
				-28.164398193359375
			]
		},
		{
			"mesh":2,
			"name":"Plane.002__0"
		},
		{
			"children":[
				4
			],
			"name":"Plane.002",
			"rotation":[
				0.70710688829422,
				0.7071066498756409,
				0,
				5.3385129206162674e-08
			],
			"scale":[
				99.99998474121094,
				59.16999435424805,
				99.99999237060547
			],
			"translation":[
				0,
				56.332496643066406,
				0
			]
		},
		{
			"mesh":3,
			"name":"Plane.003__0"
		},
		{
			"children":[
				6
			],
			"name":"Plane.003",
			"rotation":[
				0.70710688829422,
				0.7071066498756409,
				0,
				5.33849231487693e-08
			],
			"scale":[
				99.99998474121094,
				59.16999435424805,
				135.55398559570312
			],
			"translation":[
				-2.160329818725586,
				56.332496643066406,
				-28.164398193359375
			]
		},
		{
			"mesh":4,
			"name":"Sphere__0"
		},
		{
			"children":[
				8
			],
			"name":"Sphere",
			"rotation":[
				-0.70710688829422,
				0,
				0,
				0.7071066498756409
			],
			"scale":[
				38.52019500732422,
				38.52019119262695,
				38.52019500732422
			],
			"translation":[
				0.5275049805641174,
				57.757598876953125,
				-25.52280044555664
			]
		},
		{
			"mesh":5,
			"name":"Sphere.001__0"
		},
		{
			"children":[
				10
			],
			"name":"Sphere.001",
			"rotation":[
				-0.70710688829422,
				0,
				0,
				0.7071066498756409
			],
			"scale":[
				33.99720001220703,
				33.997196197509766,
				33.997196197509766
			],
			"translation":[
				0.5275049805641174,
				57.757598876953125,
				-25.52280044555664
			]
		},
		{
			"children":[
				1,
				3,
				5,
				7,
				9,
				11
			],
			"name":"RootNode"
		},
		{
			"children":[
				12
			],
			"name":"cb60025dfaf8477fa85b17e056958596.fbx",
			"rotation":[
				0,
				-0.7071068286895752,
				0,
				0.7071068286895752
			],
			"scale":[
				0.009999998845160007,
				0.009999999776482582,
				0.009999998845160007
			],
			"translation":[
				0,
				-0.5600000023841858,
				0
			]
		}
	],
	"materials":[
		{
			"doubleSided":true,
			"name":"Material.006",
			"pbrMetallicRoughness":{
				"baseColorFactor":[
					0.800000011920929,
					0.800000011920929,
					0.800000011920929,
					1
				],
				"roughnessFactor":0.2046632170677185
			}
		},
		{
			"doubleSided":true,
			"name":"Material.005",
			"pbrMetallicRoughness":{
				"baseColorFactor":[
					0.800000011920929,
					0.800000011920929,
					0.800000011920929,
					1
				],
				"roughnessFactor":0.17357513308525085
			}
		},
		{
			"doubleSided":true,
			"name":"Material.001",
			"pbrMetallicRoughness":{
				"baseColorFactor":[
					0.800000011920929,
					0.800000011920929,
					0.800000011920929,
					1
				],
				"roughnessFactor":0.2046632170677185
			}
		},
		{
			"doubleSided":true,
			"name":"Material.003",
			"pbrMetallicRoughness":{
				"baseColorFactor":[
					0.800000011920929,
					0.800000011920929,
					0.800000011920929,
					1
				],
				"roughnessFactor":0.19948187470436096
			}
		},
		{
			"doubleSided":true,
			"name":"Material.002",
			"pbrMetallicRoughness":{
				"baseColorFactor":[
					0.800000011920929,
					0.800000011920929,
					0.800000011920929,
					1
				],
				"roughnessFactor":0.2046632170677185
			}
		},
		{
			"doubleSided":true,
			"name":"Material.004",
			"pbrMetallicRoughness":{
				"baseColorFactor":[
					0.800000011920929,
					0.800000011920929,
					0.800000011920929,
					1
				],
				"roughnessFactor":0.2150259017944336
			}
		}
	],
	"meshes":[
		{
			"name":"Plane__0",
			"primitives":[
				{
					"attributes":{
						"POSITION":0,
						"NORMAL":1,
						"TEXCOORD_0":2
					},
					"indices":3,
					"material":0
				}
			]
		},
		{
			"name":"Plane.001__0",
			"primitives":[
				{
					"attributes":{
						"POSITION":4,
						"NORMAL":5,
						"TEXCOORD_0":6
					},
					"indices":7,
					"material":1
				}
			]
		},
		{
			"name":"Plane.002__0",
			"primitives":[
				{
					"attributes":{
						"POSITION":8,
						"NORMAL":9,
						"TEXCOORD_0":10
					},
					"indices":3,
					"material":2
				}
			]
		},
		{
			"name":"Plane.003__0",
			"primitives":[
				{
					"attributes":{
						"POSITION":11,
						"NORMAL":12,
						"TEXCOORD_0":13
					},
					"indices":7,
					"material":3
				}
			]
		},
		{
			"name":"Sphere__0",
			"primitives":[
				{
					"attributes":{
						"POSITION":14,
						"NORMAL":15,
						"TEXCOORD_0":16
					},
					"indices":17,
					"material":4
				}
			]
		},
		{
			"name":"Sphere.001__0",
			"primitives":[
				{
					"attributes":{
						"POSITION":18,
						"NORMAL":19,
						"TEXCOORD_0":20
					},
					"indices":21,
					"material":5
				}
			]
		}
	],
	"accessors":[
		{
			"bufferView":0,
			"componentType":5126,
			"count":1362,
			"max":[
				0.5047521591186523,
				2.653082847595215,
				0.7203214168548584
			],
			"min":[
				-0.5142239928245544,
				-2.7214999198913574,
				-0.15328699350357056
			],
			"type":"VEC3"
		},
		{
			"bufferView":1,
			"componentType":5126,
			"count":1362,
			"type":"VEC3"
		},
		{
			"bufferView":2,
			"componentType":5126,
			"count":1362,
			"type":"VEC2"
		},
		{
			"bufferView":3,
			"componentType":5123,
			"count":8160,
			"type":"SCALAR"
		},
		{
			"bufferView":4,
			"componentType":5126,
			"count":3012,
			"max":[
				0.9061537384986877,
				2.197275161743164,
				0.24075362086296082
			],
			"min":[
				-0.9061700105667114,
				-2.1931099891662598,
				-0.24171200394630432
			],
			"type":"VEC3"
		},
		{
			"bufferView":5,
			"componentType":5126,
			"count":3012,
			"type":"VEC3"
		},
		{
			"bufferView":6,
			"componentType":5126,
			"count":3012,
			"type":"VEC2"
		},
		{
			"bufferView":7,
			"componentType":5123,
			"count":18048,
			"type":"SCALAR"
		},
		{
			"bufferView":8,
			"componentType":5126,
			"count":1362,
			"max":[
				0.5047521591186523,
				2.653082847595215,
				0.7203214168548584
			],
			"min":[
				-0.5142239928245544,
				-2.7214999198913574,
				-0.15328699350357056
			],
			"type":"VEC3"
		},
		{
			"bufferView":9,
			"componentType":5126,
			"count":1362,
			"type":"VEC3"
		},
		{
			"bufferView":10,
			"componentType":5126,
			"count":1362,
			"type":"VEC2"
		},
		{
			"bufferView":11,
			"componentType":5126,
			"count":3012,
			"max":[
				0.9061537384986877,
				2.197275161743164,
				0.24075362086296082
			],
			"min":[
				-0.9061700105667114,
				-2.1931099891662598,
				-0.24171200394630432
			],
			"type":"VEC3"
		},
		{
			"bufferView":12,
			"componentType":5126,
			"count":3012,
			"type":"VEC3"
		},
		{
			"bufferView":13,
			"componentType":5126,
			"count":3012,
			"type":"VEC2"
		},
		{
			"bufferView":14,
			"componentType":5126,
			"count":469,
			"max":[
				0.999988853931427,
				0.6464270949363708,
				0.999988853931427
			],
			"min":[
				-1.0000100135803223,
				-0.4647131860256195,
				-1.0000100135803223
			],
			"type":"VEC3"
		},
		{
			"bufferView":15,
			"componentType":5126,
			"count":469,
			"type":"VEC3"
		},
		{
			"bufferView":16,
			"componentType":5126,
			"count":469,
			"type":"VEC2"
		},
		{
			"bufferView":17,
			"componentType":5123,
			"count":2484,
			"type":"SCALAR"
		},
		{
			"bufferView":18,
			"componentType":5126,
			"count":559,
			"max":[
				0.999988853931427,
				1.0909916162490845,
				0.999988853931427
			],
			"min":[
				-1.0000100135803223,
				-0.9092779755592346,
				-1.0000100135803223
			],
			"type":"VEC3"
		},
		{
			"bufferView":19,
			"componentType":5126,
			"count":559,
			"type":"VEC3"
		},
		{
			"bufferView":20,
			"componentType":5126,
			"count":559,
			"type":"VEC2"
		},
		{
			"bufferView":21,
			"componentType":5123,
			"count":2880,
			"type":"SCALAR"
		}
	],
	"bufferViews":[
		{
			"buffer":0,
			"byteLength":16344,
			"byteOffset":0,
			"target":34962
		},
		{
			"buffer":0,
			"byteLength":16344,
			"byteOffset":16344,
			"target":34962
		},
		{
			"buffer":0,
			"byteLength":10896,
			"byteOffset":32688,
			"target":34962
		},
		{
			"buffer":0,
			"byteLength":16320,
			"byteOffset":43584,
			"target":34963
		},
		{
			"buffer":0,
			"byteLength":36144,
			"byteOffset":59904,
			"target":34962
		},
		{
			"buffer":0,
			"byteLength":36144,
			"byteOffset":96048,
			"target":34962
		},
		{
			"buffer":0,
			"byteLength":24096,
			"byteOffset":132192,
			"target":34962
		},
		{
			"buffer":0,
			"byteLength":36096,
			"byteOffset":156288,
			"target":34963
		},
		{
			"buffer":0,
			"byteLength":16344,
			"byteOffset":192384,
			"target":34962
		},
		{
			"buffer":0,
			"byteLength":16344,
			"byteOffset":208728,
			"target":34962
		},
		{
			"buffer":0,
			"byteLength":10896,
			"byteOffset":225072,
			"target":34962
		},
		{
			"buffer":0,
			"byteLength":36144,
			"byteOffset":235968,
			"target":34962
		},
		{
			"buffer":0,
			"byteLength":36144,
			"byteOffset":272112,
			"target":34962
		},
		{
			"buffer":0,
			"byteLength":24096,
			"byteOffset":308256,
			"target":34962
		},
		{
			"buffer":0,
			"byteLength":5628,
			"byteOffset":332352,
			"target":34962
		},
		{
			"buffer":0,
			"byteLength":5628,
			"byteOffset":337980,
			"target":34962
		},
		{
			"buffer":0,
			"byteLength":3752,
			"byteOffset":343608,
			"target":34962
		},
		{
			"buffer":0,
			"byteLength":4968,
			"byteOffset":347360,
			"target":34963
		},
		{
			"buffer":0,
			"byteLength":6708,
			"byteOffset":352328,
			"target":34962
		},
		{
			"buffer":0,
			"byteLength":6708,
			"byteOffset":359036,
			"target":34962
		},
		{
			"buffer":0,
			"byteLength":4472,
			"byteOffset":365744,
			"target":34962
		},
		{
			"buffer":0,
			"byteLength":5760,
			"byteOffset":370216,
			"target":34963
		}
	],
	"buffers":[
		{
			"byteLength":375976,
			"uri":"chromeCross.bin"
		}
	]
}
