{
	"asset":{
		"generator":"Khronos glTF Blender I/O v4.3.47",
		"version":"2.0"
	},
	"extensionsUsed":[
		"KHR_lights_punctual"
	],
	"extensionsRequired":[
		"KHR_lights_punctual"
	],
	"extensions":{
		"KHR_lights_punctual":{
			"lights":[
				{
					"color":[
						1,
						0.005952130071818829,
						0
					],
					"intensity":51209.89873679668,
					"spot":{
						"innerConeAngle":0.25074732723834003,
						"outerConeAngle":0.29499685764312744
					},
					"type":"spot",
					"name":"Spot"
				},
				{
					"color":[
						1,
						1,
						1
					],
					"intensity":3606.240143299103,
					"type":"directional",
					"name":"Light"
				}
			]
		}
	},
	"scene":0,
	"scenes":[
		{
			"name":"Scene",
			"nodes":[
				12,
				13,
				14,
				15,
				16,
				17,
				18,
				19,
				20
			]
		}
	],
	"nodes":[
		{
			"mesh":0,
			"name":"asteroid_low_Aster_0"
		},
		{
			"children":[
				0
			],
			"name":"asteroid_low"
		},
		{
			"mesh":1,
			"name":"Astro_suit_0"
		},
		{
			"mesh":2,
			"name":"Astro_suit_accessories_0"
		},
		{
			"mesh":3,
			"name":"Astro_suit_visor_0"
		},
		{
			"children":[
				2,
				3,
				4
			],
			"name":"Astro"
		},
		{
			"mesh":4,
			"name":"polySurface280_Green_0",
			"translation":[
				1.239776611328125e-05,
				-1.9073486328125e-05,
				-5.1975250244140625e-05
			]
		},
		{
			"children":[
				6
			],
			"name":"Flower.001",
			"translation":[
				1.239776611328125e-05,
				-1.9073486328125e-05,
				-5.1975250244140625e-05
			]
		},
		{
			"children":[
				7
			],
			"name":"Flower",
			"rotation":[
				-0.5909239649772644,
				-0.2856367528438568,
				-0.2494634985923767,
				0.7120312452316284
			],
			"scale":[
				0.057449109852313995,
				0.057449012994766235,
				0.057449083775281906
			]
		},
		{
			"mesh":5,
			"name":"Skull"
		},
		{
			"children":[
				9
			],
			"name":"Skull.001",
			"translation":[
				-0.8744959831237793,
				0,
				0
			]
		},
		{
			"children":[
				1,
				5,
				8,
				10
			],
			"name":"RootNode"
		},
		{
			"children":[
				11
			],
			"name":"Space Man",
			"scale":[
				0.08208760619163513,
				0.08208760619163513,
				0.08208760619163513
			],
			"translation":[
				0.25648972392082214,
				-2.863544464111328,
				-1.3317581415176392
			]
		},
		{
			"name":"B\u00e9zierCircle",
			"scale":[
				618.979248046875,
				618.979248046875,
				618.979248046875
			],
			"translation":[
				42.568206787109375,
				23.292743682861328,
				-8.686663627624512
			]
		},
		{
			"camera":0,
			"name":"Camera",
			"rotation":[
				0.07706782966852188,
				-0.009401206858456135,
				0.0007267244509421289,
				0.9969812631607056
			],
			"translation":[
				-8.16623306274414,
				-38.95340347290039,
				447.7774963378906
			]
		},
		{
			"name":"Area",
			"rotation":[
				0.2842334508895874,
				-0.44516628980636597,
				0.4212215542793274,
				0.7372996211051941
			],
			"scale":[
				10.54733943939209,
				10.547338485717773,
				10.547337532043457
			],
			"translation":[
				-14.854086875915527,
				-32.3719596862793,
				-11.831870079040527
			]
		},
		{
			"extensions":{
				"KHR_lights_punctual":{
					"light":0
				}
			},
			"name":"Spot",
			"rotation":[
				0.527715265750885,
				-0.21080610156059265,
				0.6405158042907715,
				0.5165432691574097
			],
			"scale":[
				2.3004698753356934,
				2.3004696369171143,
				2.3004703521728516
			],
			"translation":[
				-1.5262812376022339,
				-39.358848571777344,
				-9.144449234008789
			]
		},
		{
			"extensions":{
				"KHR_lights_punctual":{
					"light":1
				}
			},
			"name":"Light",
			"rotation":[
				-0.005562872625887394,
				0.5242109298706055,
				0.5499402284622192,
				0.6501829624176025
			],
			"scale":[
				1.4667038917541504,
				1.4667035341262817,
				1.4667037725448608
			],
			"translation":[
				95.46441650390625,
				102.4546890258789,
				78.43682861328125
			]
		},
		{
			"mesh":6,
			"name":"ChromeCross",
			"rotation":[
				-0.20844213664531708,
				-0.8414435386657715,
				0.48847854137420654,
				0.09956695139408112
			],
			"scale":[
				0.6045513153076172,
				0.6045512557029724,
				0.6045513153076172
			],
			"translation":[
				-10.396331787109375,
				-24.09612464904785,
				-17.180381774902344
			]
		},
		{
			"mesh":7,
			"name":"ChromeGrill",
			"rotation":[
				0,
				-0.2913811206817627,
				-0.9566070437431335,
				0
			],
			"scale":[
				5.007731914520264,
				5.0077338218688965,
				5.007735252380371
			],
			"translation":[
				0.3263213634490967,
				28.39288902282715,
				-3.1999239921569824
			]
		},
		{
			"mesh":8,
			"name":"ChromeRing",
			"rotation":[
				0.5152786374092102,
				0,
				0,
				0.8570227026939392
			],
			"scale":[
				-0.21339984238147736,
				-0.21339985728263855,
				-0.21339985728263855
			],
			"translation":[
				0.1798122674226761,
				29.88196563720703,
				5.275197505950928
			]
		}
	],
	"cameras":[
		{
			"name":"Camera",
			"perspective":{
				"aspectRatio":1.7777777777777777,
				"yfov":0.39959652046304894,
				"zfar":1000,
				"znear":0.10000000149011612
			},
			"type":"perspective"
		}
	],
	"animations":[
		{
			"channels":[
				{
					"sampler":0,
					"target":{
						"node":14,
						"path":"translation"
					}
				},
				{
					"sampler":1,
					"target":{
						"node":14,
						"path":"rotation"
					}
				},
				{
					"sampler":2,
					"target":{
						"node":14,
						"path":"scale"
					}
				}
			],
			"name":"Action",
			"samplers":[
				{
					"input":38,
					"interpolation":"LINEAR",
					"output":39
				},
				{
					"input":38,
					"interpolation":"LINEAR",
					"output":40
				},
				{
					"input":41,
					"interpolation":"STEP",
					"output":42
				}
			]
		}
	],
	"materials":[
		{
			"doubleSided":true,
			"name":"Material",
			"pbrMetallicRoughness":{
				"baseColorFactor":[
					0.20821888744831085,
					0.20821888744831085,
					0.20821888744831085,
					1
				],
				"metallicFactor":0,
				"roughnessFactor":0.6243523359298706
			}
		},
		{
			"doubleSided":true,
			"name":"suit",
			"normalTexture":{
				"index":0,
				"scale":2
			},
			"occlusionTexture":{
				"index":1
			},
			"pbrMetallicRoughness":{
				"baseColorFactor":[
					0.0052386014722287655,
					0.0052386014722287655,
					0.0052386014722287655,
					1
				],
				"metallicRoughnessTexture":{
					"index":2
				}
			}
		},
		{
			"doubleSided":true,
			"name":"suit_accessories",
			"normalTexture":{
				"index":3,
				"scale":2
			},
			"occlusionTexture":{
				"index":4
			},
			"pbrMetallicRoughness":{
				"baseColorFactor":[
					0,
					0,
					0,
					1
				],
				"metallicFactor":0,
				"metallicRoughnessTexture":{
					"index":5
				}
			}
		},
		{
			"alphaMode":"BLEND",
			"doubleSided":true,
			"name":"suit_visor",
			"normalTexture":{
				"index":6,
				"scale":2
			},
			"occlusionTexture":{
				"index":7
			},
			"pbrMetallicRoughness":{
				"baseColorTexture":{
					"index":8
				},
				"metallicFactor":0,
				"metallicRoughnessTexture":{
					"index":9
				}
			}
		},
		{
			"doubleSided":true,
			"name":"Chrome",
			"pbrMetallicRoughness":{
				"baseColorFactor":[
					0.40762782096862793,
					0.40762782096862793,
					0.40762782096862793,
					1
				],
				"roughnessFactor":0.20000000298023224
			}
		}
	],
	"meshes":[
		{
			"name":"asteroid_low_Aster_0",
			"primitives":[
				{
					"attributes":{
						"POSITION":0,
						"NORMAL":1,
						"TEXCOORD_0":2
					},
					"indices":3,
					"material":0
				}
			]
		},
		{
			"name":"Astro_suit_0",
			"primitives":[
				{
					"attributes":{
						"POSITION":4,
						"NORMAL":5,
						"TEXCOORD_0":6
					},
					"indices":7,
					"material":1
				}
			]
		},
		{
			"name":"Astro_suit_accessories_0",
			"primitives":[
				{
					"attributes":{
						"POSITION":8,
						"NORMAL":9,
						"TEXCOORD_0":10
					},
					"indices":11,
					"material":2
				}
			]
		},
		{
			"name":"Astro_suit_visor_0",
			"primitives":[
				{
					"attributes":{
						"POSITION":12,
						"NORMAL":13,
						"TEXCOORD_0":14
					},
					"indices":15,
					"material":3
				}
			]
		},
		{
			"name":"polySurface280_Green_0",
			"primitives":[
				{
					"attributes":{
						"POSITION":16,
						"NORMAL":17,
						"TEXCOORD_0":18
					},
					"indices":19,
					"material":4
				},
				{
					"attributes":{
						"POSITION":20,
						"NORMAL":21,
						"TEXCOORD_0":22
					},
					"indices":23
				}
			]
		},
		{
			"name":"SkullMesh",
			"primitives":[
				{
					"attributes":{
						"POSITION":24,
						"NORMAL":25,
						"TEXCOORD_0":26
					},
					"indices":27,
					"material":4
				}
			]
		},
		{
			"name":"ChromeCrossMesh",
			"primitives":[
				{
					"attributes":{
						"POSITION":28,
						"NORMAL":29,
						"TEXCOORD_0":30
					},
					"indices":31,
					"material":4
				}
			]
		},
		{
			"name":"ChromeGrill",
			"primitives":[
				{
					"attributes":{
						"POSITION":32,
						"NORMAL":33
					},
					"indices":34,
					"material":4
				}
			]
		},
		{
			"name":"ChromeRing",
			"primitives":[
				{
					"attributes":{
						"POSITION":35,
						"NORMAL":36
					},
					"indices":37,
					"material":4
				}
			]
		}
	],
	"textures":[
		{
			"sampler":0,
			"source":0
		},
		{
			"sampler":0,
			"source":1
		},
		{
			"sampler":0,
			"source":2
		},
		{
			"sampler":0,
			"source":3
		},
		{
			"sampler":0,
			"source":4
		},
		{
			"sampler":0,
			"source":5
		},
		{
			"sampler":0,
			"source":3
		},
		{
			"sampler":0,
			"source":4
		},
		{
			"sampler":0,
			"source":6
		},
		{
			"sampler":0,
			"source":5
		}
	],
	"images":[
		{
			"mimeType":"image/jpeg",
			"name":"51704234313a4a20bf82dcf2f4fb0b78_N_suit_Normal",
			"uri":"51704234313a4a20bf82dcf2f4fb0b78_N_suit_Normal.jpg"
		},
		{
			"mimeType":"image/jpeg",
			"name":"7aabab74e0324e6bb94b8d651b1ba91e_R_suit_Ambient_Occlusion",
			"uri":"7aabab74e0324e6bb94b8d651b1ba91e_R_suit_Ambient_Occlusion.jpg"
		},
		{
			"mimeType":"image/jpeg",
			"name":"f2830dd5415b4e8e99c49a3595505405_R_suit_Roughness",
			"uri":"f2830dd5415b4e8e99c49a3595505405_R_suit_Roughness.jpg"
		},
		{
			"mimeType":"image/jpeg",
			"name":"496a512bd22d44a78e23908693ca9111_N_suit_accessories_Normal",
			"uri":"496a512bd22d44a78e23908693ca9111_N_suit_accessories_Normal.jpg"
		},
		{
			"mimeType":"image/jpeg",
			"name":"1dad9d31290c4bbe9f2084a858447432_R_suit_accessories_Ambient_Occlusion",
			"uri":"1dad9d31290c4bbe9f2084a858447432_R_suit_accessories_Ambient_Occlusion.jpg"
		},
		{
			"mimeType":"image/jpeg",
			"name":"ad4f5a41d85d43c28601234d4b7387f1_R_suit_accessories_Roughness",
			"uri":"ad4f5a41d85d43c28601234d4b7387f1_R_suit_accessories_Roughness.jpg"
		},
		{
			"mimeType":"image/png",
			"name":"69fef7d4f0554136a2ec53684e825707_A_suit_accessories_Albedo",
			"uri":"69fef7d4f0554136a2ec53684e825707_A_suit_accessories_Albedo.png"
		}
	],
	"accessors":[
		{
			"bufferView":0,
			"componentType":5126,
			"count":23017,
			"max":[
				271.2181701660156,
				274.52484130859375,
				270.68707275390625
			],
			"min":[
				-271.1409912109375,
				-257.05499267578125,
				-269.5329895019531
			],
			"type":"VEC3"
		},
		{
			"bufferView":1,
			"componentType":5126,
			"count":23017,
			"type":"VEC3"
		},
		{
			"bufferView":2,
			"componentType":5126,
			"count":23017,
			"type":"VEC2"
		},
		{
			"bufferView":3,
			"componentType":5123,
			"count":74502,
			"type":"SCALAR"
		},
		{
			"bufferView":4,
			"componentType":5126,
			"count":17056,
			"max":[
				70.9368896484375,
				394.67657470703125,
				78.15115356445312
			],
			"min":[
				-71.11689758300781,
				257.27801513671875,
				-57.8046989440918
			],
			"type":"VEC3"
		},
		{
			"bufferView":5,
			"componentType":5126,
			"count":17056,
			"type":"VEC3"
		},
		{
			"bufferView":6,
			"componentType":5126,
			"count":17056,
			"type":"VEC2"
		},
		{
			"bufferView":7,
			"componentType":5123,
			"count":70152,
			"type":"SCALAR"
		},
		{
			"bufferView":8,
			"componentType":5126,
			"count":30356,
			"max":[
				100.76223754882812,
				401.9185791015625,
				102.56671142578125
			],
			"min":[
				-103.2509994506836,
				245.48399353027344,
				-58.65840148925781
			],
			"type":"VEC3"
		},
		{
			"bufferView":9,
			"componentType":5126,
			"count":30356,
			"type":"VEC3"
		},
		{
			"bufferView":10,
			"componentType":5126,
			"count":30356,
			"type":"VEC2"
		},
		{
			"bufferView":11,
			"componentType":5123,
			"count":103065,
			"type":"SCALAR"
		},
		{
			"bufferView":12,
			"componentType":5126,
			"count":192,
			"max":[
				21.216371536254883,
				376.5201416015625,
				65.58866882324219
			],
			"min":[
				-21.216299057006836,
				348.875,
				36.152400970458984
			],
			"type":"VEC3"
		},
		{
			"bufferView":13,
			"componentType":5126,
			"count":192,
			"type":"VEC3"
		},
		{
			"bufferView":14,
			"componentType":5126,
			"count":192,
			"type":"VEC2"
		},
		{
			"bufferView":15,
			"componentType":5123,
			"count":924,
			"type":"SCALAR"
		},
		{
			"bufferView":16,
			"componentType":5126,
			"count":7853,
			"max":[
				667.7197265625,
				536.55859375,
				5650
			],
			"min":[
				330.07989501953125,
				200.2744140625,
				4849.5400390625
			],
			"type":"VEC3"
		},
		{
			"bufferView":17,
			"componentType":5126,
			"count":7853,
			"type":"VEC3"
		},
		{
			"bufferView":18,
			"componentType":5126,
			"count":7853,
			"type":"VEC2"
		},
		{
			"bufferView":19,
			"componentType":5123,
			"count":24294,
			"type":"SCALAR"
		},
		{
			"bufferView":20,
			"componentType":5126,
			"count":96,
			"max":[
				553.74267578125,
				418.1245422363281,
				5560.490234375
			],
			"min":[
				463.74700927734375,
				318.03009033203125,
				5485.17529296875
			],
			"type":"VEC3"
		},
		{
			"bufferView":21,
			"componentType":5126,
			"count":96,
			"type":"VEC3"
		},
		{
			"bufferView":22,
			"componentType":5126,
			"count":96,
			"type":"VEC2"
		},
		{
			"bufferView":23,
			"componentType":5123,
			"count":432,
			"type":"SCALAR"
		},
		{
			"bufferView":24,
			"componentType":5126,
			"count":5849,
			"max":[
				12.84575366973877,
				393.9037170410156,
				58.70936965942383
			],
			"min":[
				-11.096699714660645,
				353.0010070800781,
				26.21649932861328
			],
			"type":"VEC3"
		},
		{
			"bufferView":25,
			"componentType":5126,
			"count":5849,
			"type":"VEC3"
		},
		{
			"bufferView":26,
			"componentType":5126,
			"count":5849,
			"type":"VEC2"
		},
		{
			"bufferView":27,
			"componentType":5123,
			"count":24708,
			"type":"SCALAR"
		},
		{
			"bufferView":28,
			"componentType":5126,
			"count":9777,
			"max":[
				4.6020050048828125,
				1.368035078048706,
				6.306180953979492
			],
			"min":[
				-4.752118110656738,
				-1.201614499092102,
				-9.50271987915039
			],
			"type":"VEC3"
		},
		{
			"bufferView":29,
			"componentType":5126,
			"count":9777,
			"type":"VEC3"
		},
		{
			"bufferView":30,
			"componentType":5126,
			"count":9777,
			"type":"VEC2"
		},
		{
			"bufferView":31,
			"componentType":5123,
			"count":57780,
			"type":"SCALAR"
		},
		{
			"bufferView":32,
			"componentType":5126,
			"count":65023,
			"max":[
				0.9491757750511169,
				0.5391079187393188,
				0.48916739225387573
			],
			"min":[
				-0.954868733882904,
				-0.07327774167060852,
				0.03568193316459656
			],
			"type":"VEC3"
		},
		{
			"bufferView":33,
			"componentType":5126,
			"count":65023,
			"type":"VEC3"
		},
		{
			"bufferView":34,
			"componentType":5123,
			"count":389508,
			"type":"SCALAR"
		},
		{
			"bufferView":35,
			"componentType":5126,
			"count":795818,
			"max":[
				10.552677154541016,
				5.144757270812988,
				10.552677154541016
			],
			"min":[
				-10.55259895324707,
				-5.144742012023926,
				-10.552600860595703
			],
			"type":"VEC3"
		},
		{
			"bufferView":36,
			"componentType":5126,
			"count":795818,
			"type":"VEC3"
		},
		{
			"bufferView":37,
			"componentType":5125,
			"count":4466064,
			"type":"SCALAR"
		},
		{
			"bufferView":38,
			"componentType":5126,
			"count":250,
			"max":[
				10.416666666666666
			],
			"min":[
				0.041666666666666664
			],
			"type":"SCALAR"
		},
		{
			"bufferView":39,
			"componentType":5126,
			"count":250,
			"type":"VEC3"
		},
		{
			"bufferView":40,
			"componentType":5126,
			"count":250,
			"type":"VEC4"
		},
		{
			"bufferView":41,
			"componentType":5126,
			"count":2,
			"max":[
				10.416666666666666
			],
			"min":[
				0.041666666666666664
			],
			"type":"SCALAR"
		},
		{
			"bufferView":42,
			"componentType":5126,
			"count":2,
			"type":"VEC3"
		}
	],
	"bufferViews":[
		{
			"buffer":0,
			"byteLength":276204,
			"byteOffset":0,
			"target":34962
		},
		{
			"buffer":0,
			"byteLength":276204,
			"byteOffset":276204,
			"target":34962
		},
		{
			"buffer":0,
			"byteLength":184136,
			"byteOffset":552408,
			"target":34962
		},
		{
			"buffer":0,
			"byteLength":149004,
			"byteOffset":736544,
			"target":34963
		},
		{
			"buffer":0,
			"byteLength":204672,
			"byteOffset":885548,
			"target":34962
		},
		{
			"buffer":0,
			"byteLength":204672,
			"byteOffset":1090220,
			"target":34962
		},
		{
			"buffer":0,
			"byteLength":136448,
			"byteOffset":1294892,
			"target":34962
		},
		{
			"buffer":0,
			"byteLength":140304,
			"byteOffset":1431340,
			"target":34963
		},
		{
			"buffer":0,
			"byteLength":364272,
			"byteOffset":1571644,
			"target":34962
		},
		{
			"buffer":0,
			"byteLength":364272,
			"byteOffset":1935916,
			"target":34962
		},
		{
			"buffer":0,
			"byteLength":242848,
			"byteOffset":2300188,
			"target":34962
		},
		{
			"buffer":0,
			"byteLength":206130,
			"byteOffset":2543036,
			"target":34963
		},
		{
			"buffer":0,
			"byteLength":2304,
			"byteOffset":2749168,
			"target":34962
		},
		{
			"buffer":0,
			"byteLength":2304,
			"byteOffset":2751472,
			"target":34962
		},
		{
			"buffer":0,
			"byteLength":1536,
			"byteOffset":2753776,
			"target":34962
		},
		{
			"buffer":0,
			"byteLength":1848,
			"byteOffset":2755312,
			"target":34963
		},
		{
			"buffer":0,
			"byteLength":94236,
			"byteOffset":2757160,
			"target":34962
		},
		{
			"buffer":0,
			"byteLength":94236,
			"byteOffset":2851396,
			"target":34962
		},
		{
			"buffer":0,
			"byteLength":62824,
			"byteOffset":2945632,
			"target":34962
		},
		{
			"buffer":0,
			"byteLength":48588,
			"byteOffset":3008456,
			"target":34963
		},
		{
			"buffer":0,
			"byteLength":1152,
			"byteOffset":3057044,
			"target":34962
		},
		{
			"buffer":0,
			"byteLength":1152,
			"byteOffset":3058196,
			"target":34962
		},
		{
			"buffer":0,
			"byteLength":768,
			"byteOffset":3059348,
			"target":34962
		},
		{
			"buffer":0,
			"byteLength":864,
			"byteOffset":3060116,
			"target":34963
		},
		{
			"buffer":0,
			"byteLength":70188,
			"byteOffset":3060980,
			"target":34962
		},
		{
			"buffer":0,
			"byteLength":70188,
			"byteOffset":3131168,
			"target":34962
		},
		{
			"buffer":0,
			"byteLength":46792,
			"byteOffset":3201356,
			"target":34962
		},
		{
			"buffer":0,
			"byteLength":49416,
			"byteOffset":3248148,
			"target":34963
		},
		{
			"buffer":0,
			"byteLength":117324,
			"byteOffset":3297564,
			"target":34962
		},
		{
			"buffer":0,
			"byteLength":117324,
			"byteOffset":3414888,
			"target":34962
		},
		{
			"buffer":0,
			"byteLength":78216,
			"byteOffset":3532212,
			"target":34962
		},
		{
			"buffer":0,
			"byteLength":115560,
			"byteOffset":3610428,
			"target":34963
		},
		{
			"buffer":0,
			"byteLength":780276,
			"byteOffset":3725988,
			"target":34962
		},
		{
			"buffer":0,
			"byteLength":780276,
			"byteOffset":4506264,
			"target":34962
		},
		{
			"buffer":0,
			"byteLength":779016,
			"byteOffset":5286540,
			"target":34963
		},
		{
			"buffer":0,
			"byteLength":9549816,
			"byteOffset":6065556,
			"target":34962
		},
		{
			"buffer":0,
			"byteLength":9549816,
			"byteOffset":15615372,
			"target":34962
		},
		{
			"buffer":0,
			"byteLength":17864256,
			"byteOffset":25165188,
			"target":34963
		},
		{
			"buffer":0,
			"byteLength":1000,
			"byteOffset":43029444
		},
		{
			"buffer":0,
			"byteLength":3000,
			"byteOffset":43030444
		},
		{
			"buffer":0,
			"byteLength":4000,
			"byteOffset":43033444
		},
		{
			"buffer":0,
			"byteLength":8,
			"byteOffset":43037444
		},
		{
			"buffer":0,
			"byteLength":24,
			"byteOffset":43037452
		}
	],
	"samplers":[
		{
			"magFilter":9729,
			"minFilter":9987
		}
	],
	"buffers":[
		{
			"byteLength":43037476,
			"uri":"ChromeSpace.bin"
		}
	]
}
