{
	"asset":{
		"generator":"Khronos glTF Blender I/O v4.3.47",
		"version":"2.0"
	},
	"scene":0,
	"scenes":[
		{
			"name":"Scene",
			"nodes":[
				1
			]
		}
	],
	"nodes":[
		{
			"mesh":0,
			"name":"_gltfNode_0",
			"rotation":[
				0.7293756604194641,
				0,
				0,
				0.6841133832931519
			],
			"translation":[
				-0.00017707794904708862,
				0.011925090104341507,
				0.17817600071430206
			]
		},
		{
			"children":[
				0
			],
			"name":"GLTF Converted Scene",
			"rotation":[
				1,
				0,
				0,
				0
			],
			"translation":[
				0,
				0,
				0.38146066665649414
			]
		}
	],
	"materials":[
		{
			"doubleSided":true,
			"name":"Material.001",
			"pbrMetallicRoughness":{
				"baseColorFactor":[
					0.800000011920929,
					0.800000011920929,
					0.800000011920929,
					1
				],
				"roughnessFactor":0.19948187470436096
			}
		}
	],
	"meshes":[
		{
			"name":"Mesh_0",
			"primitives":[
				{
					"attributes":{
						"POSITION":0,
						"NORMAL":1
					},
					"indices":2,
					"material":0
				}
			]
		}
	],
	"accessors":[
		{
			"bufferView":0,
			"componentType":5126,
			"count":65021,
			"max":[
				0.9491757750511169,
				0.5391079187393188,
				0.48916739225387573
			],
			"min":[
				-0.954868733882904,
				-0.07327774167060852,
				0.03568193316459656
			],
			"type":"VEC3"
		},
		{
			"bufferView":1,
			"componentType":5126,
			"count":65021,
			"type":"VEC3"
		},
		{
			"bufferView":2,
			"componentType":5123,
			"count":389508,
			"type":"SCALAR"
		}
	],
	"bufferViews":[
		{
			"buffer":0,
			"byteLength":780252,
			"byteOffset":0,
			"target":34962
		},
		{
			"buffer":0,
			"byteLength":780252,
			"byteOffset":780252,
			"target":34962
		},
		{
			"buffer":0,
			"byteLength":779016,
			"byteOffset":1560504,
			"target":34963
		}
	],
	"buffers":[
		{
			"byteLength":2339520,
			"uri":"ChromeGrill.bin"
		}
	]
}
