{
	"asset":{
		"generator":"Khronos glTF Blender I/O v4.3.47",
		"version":"2.0"
	},
	"scene":0,
	"scenes":[
		{
			"extras":{
				"blenderkitUI":{
					"assetbar_on":0,
					"turn_off":0,
					"dragging":0,
					"margin":0,
					"thumb_size":96,
					"bar_x":78,
					"bar_end":101,
					"bar_width":1407,
					"wcount":14,
					"hcount":0,
					"bar_height":0,
					"bar_y":828,
					"reports_y":728,
					"reports_x":78,
					"rating_x":78,
					"rating_y":828,
					"drawoffset":0,
					"tooltip":"",
					"active_index":-3,
					"draw_drag_image":0,
					"draw_snapped_bounds":0,
					"has_hit":0,
					"draw_tooltip":0
				},
				"blenderkit_models":{},
				"sun_pos_properties":{
					"day_of_year":246,
					"sun_object":{},
					"object_collection":{}
				},
				"uuid":"cb84cfd7-0434-4ad8-bfa6-cd241b269289",
				"assets reported":{},
				"scatter_properties":{},
				"print_3d":{},
				"paper_model":{},
				"muv_uv_bounding_box_enabled":1,
				"muv_uv_bounding_box_uniform_scaling":1,
				"muv_uv_bounding_box_boundary":1,
				"muv_pack_uv_enabled":1,
				"search results":[],
				"muv_align_uv_enabled":1,
				"muv_smooth_uv_enabled":1
			},
			"name":"Scene",
			"nodes":[
				0
			]
		}
	],
	"nodes":[
		{
			"extras":{
				"ant_landscape":{}
			},
			"mesh":0,
			"name":"Key 2",
			"rotation":[
				0,
				0,
				-0.025240354239940643,
				0.9996814131736755
			],
			"translation":[
				-0.015750885009765625,
				0,
				-0.2380988597869873
			]
		}
	],
	"materials":[
		{
			"doubleSided":true,
			"name":"silver mat",
			"pbrMetallicRoughness":{
				"baseColorFactor":[
					0.23905275762081146,
					0.23905275762081146,
					0.23905275762081146,
					1
				],
				"roughnessFactor":0.15909090638160706
			}
		}
	],
	"meshes":[
		{
			"name":"Circle.002",
			"primitives":[
				{
					"attributes":{
						"POSITION":0,
						"NORMAL":1,
						"TEXCOORD_0":2
					},
					"indices":3,
					"material":0
				}
			]
		}
	],
	"accessors":[
		{
			"bufferView":0,
			"componentType":5126,
			"count":12016,
			"max":[
				0.24944818019866943,
				0.0636947974562645,
				0.7081724405288696
			],
			"min":[
				-0.24944818019866943,
				-0.0636947974562645,
				-0.42134201526641846
			],
			"type":"VEC3"
		},
		{
			"bufferView":1,
			"componentType":5126,
			"count":12016,
			"type":"VEC3"
		},
		{
			"bufferView":2,
			"componentType":5126,
			"count":12016,
			"type":"VEC2"
		},
		{
			"bufferView":3,
			"componentType":5123,
			"count":64800,
			"type":"SCALAR"
		}
	],
	"bufferViews":[
		{
			"buffer":0,
			"byteLength":144192,
			"byteOffset":0,
			"target":34962
		},
		{
			"buffer":0,
			"byteLength":144192,
			"byteOffset":144192,
			"target":34962
		},
		{
			"buffer":0,
			"byteLength":96128,
			"byteOffset":288384,
			"target":34962
		},
		{
			"buffer":0,
			"byteLength":129600,
			"byteOffset":384512,
			"target":34963
		}
	],
	"buffers":[
		{
			"byteLength":514112,
			"uri":"KeyAsset.bin"
		}
	]
}
