{
	"asset":{
		"generator":"Khronos glTF Blender I/O v4.3.47",
		"version":"2.0"
	},
	"scene":0,
	"scenes":[
		{
			"name":"Scene",
			"nodes":[
				12
			]
		}
	],
	"nodes":[
		{
			"mesh":0,
			"name":"_gltfNode_0"
		},
		{
			"mesh":1,
			"name":"_gltfNode_1"
		},
		{
			"mesh":2,
			"name":"_gltfNode_10"
		},
		{
			"mesh":3,
			"name":"_gltfNode_11"
		},
		{
			"mesh":4,
			"name":"_gltfNode_2"
		},
		{
			"mesh":5,
			"name":"_gltfNode_3"
		},
		{
			"mesh":6,
			"name":"_gltfNode_4"
		},
		{
			"mesh":7,
			"name":"_gltfNode_5"
		},
		{
			"mesh":8,
			"name":"_gltfNode_6"
		},
		{
			"mesh":9,
			"name":"_gltfNode_7"
		},
		{
			"mesh":10,
			"name":"_gltfNode_8"
		},
		{
			"mesh":11,
			"name":"_gltfNode_9"
		},
		{
			"children":[
				0,
				1,
				2,
				3,
				4,
				5,
				6,
				7,
				8,
				9,
				10,
				11
			],
			"name":"GLTF Converted Scene",
			"rotation":[
				-0.70710688829422,
				0,
				0,
				0.7071066498756409
			]
		}
	],
	"materials":[
		{
			"doubleSided":true,
			"name":"Material.001",
			"pbrMetallicRoughness":{
				"baseColorFactor":[
					0.800000011920929,
					0.800000011920929,
					0.800000011920929,
					1
				],
				"roughnessFactor":0.20000000298023224
			}
		},
		{
			"doubleSided":true,
			"name":"Material.003",
			"pbrMetallicRoughness":{
				"baseColorFactor":[
					0.800000011920929,
					0.800000011920929,
					0.800000011920929,
					1
				],
				"roughnessFactor":0.19999998807907104
			}
		},
		{
			"doubleSided":true,
			"name":"Material.009",
			"pbrMetallicRoughness":{
				"baseColorFactor":[
					0.800000011920929,
					0.800000011920929,
					0.800000011920929,
					1
				],
				"roughnessFactor":0.19999998807907104
			}
		},
		{
			"doubleSided":true,
			"name":"Material.002",
			"pbrMetallicRoughness":{
				"baseColorFactor":[
					0.800000011920929,
					0.800000011920929,
					0.800000011920929,
					1
				],
				"roughnessFactor":0.2090909481048584
			}
		},
		{
			"doubleSided":true,
			"name":"Material.004",
			"pbrMetallicRoughness":{
				"baseColorFactor":[
					0.800000011920929,
					0.800000011920929,
					0.800000011920929,
					1
				],
				"roughnessFactor":0.19999998807907104
			}
		},
		{
			"doubleSided":true,
			"name":"Material.011",
			"pbrMetallicRoughness":{
				"baseColorFactor":[
					0.800000011920929,
					0.800000011920929,
					0.800000011920929,
					1
				],
				"roughnessFactor":0.19999998807907104
			}
		},
		{
			"doubleSided":true,
			"name":"Material.007",
			"pbrMetallicRoughness":{
				"baseColorFactor":[
					0.800000011920929,
					0.800000011920929,
					0.800000011920929,
					1
				],
				"roughnessFactor":0.19999998807907104
			}
		},
		{
			"doubleSided":true,
			"name":"Material.005",
			"pbrMetallicRoughness":{
				"baseColorFactor":[
					0.800000011920929,
					0.800000011920929,
					0.800000011920929,
					1
				],
				"roughnessFactor":0.20454543828964233
			}
		},
		{
			"doubleSided":true,
			"name":"Material.006",
			"pbrMetallicRoughness":{
				"baseColorFactor":[
					0.800000011920929,
					0.800000011920929,
					0.800000011920929,
					1
				],
				"roughnessFactor":0.209090918302536
			}
		},
		{
			"doubleSided":true,
			"name":"Material.010",
			"pbrMetallicRoughness":{
				"baseColorFactor":[
					0.800000011920929,
					0.800000011920929,
					0.800000011920929,
					1
				],
				"roughnessFactor":0.19999998807907104
			}
		},
		{
			"doubleSided":true,
			"name":"Material.008",
			"pbrMetallicRoughness":{
				"baseColorFactor":[
					0.800000011920929,
					0.800000011920929,
					0.800000011920929,
					1
				],
				"roughnessFactor":0.209090918302536
			}
		}
	],
	"meshes":[
		{
			"name":"Mesh_0",
			"primitives":[
				{
					"attributes":{
						"POSITION":0,
						"NORMAL":1
					},
					"indices":2,
					"material":0
				}
			]
		},
		{
			"name":"Mesh_1",
			"primitives":[
				{
					"attributes":{
						"POSITION":3,
						"NORMAL":4
					},
					"indices":5,
					"material":1
				}
			]
		},
		{
			"name":"Mesh_10",
			"primitives":[
				{
					"attributes":{
						"POSITION":6,
						"NORMAL":7
					},
					"indices":8,
					"material":2
				}
			]
		},
		{
			"name":"Mesh_11",
			"primitives":[
				{
					"attributes":{
						"POSITION":9,
						"NORMAL":10
					},
					"indices":11,
					"material":3
				}
			]
		},
		{
			"name":"Mesh_2",
			"primitives":[
				{
					"attributes":{
						"POSITION":12,
						"NORMAL":13
					},
					"indices":14,
					"material":4
				}
			]
		},
		{
			"name":"Mesh_3",
			"primitives":[
				{
					"attributes":{
						"POSITION":15,
						"NORMAL":16
					},
					"indices":17,
					"material":3
				}
			]
		},
		{
			"name":"Mesh_4",
			"primitives":[
				{
					"attributes":{
						"POSITION":18,
						"NORMAL":19
					},
					"indices":20,
					"material":5
				}
			]
		},
		{
			"name":"Mesh_5",
			"primitives":[
				{
					"attributes":{
						"POSITION":21,
						"NORMAL":22
					},
					"indices":23,
					"material":6
				}
			]
		},
		{
			"name":"Mesh_6",
			"primitives":[
				{
					"attributes":{
						"POSITION":24,
						"NORMAL":25
					},
					"indices":26,
					"material":7
				}
			]
		},
		{
			"name":"Mesh_7",
			"primitives":[
				{
					"attributes":{
						"POSITION":27,
						"NORMAL":28
					},
					"indices":29,
					"material":8
				}
			]
		},
		{
			"name":"Mesh_8",
			"primitives":[
				{
					"attributes":{
						"POSITION":30,
						"NORMAL":31
					},
					"indices":32,
					"material":9
				}
			]
		},
		{
			"name":"Mesh_9",
			"primitives":[
				{
					"attributes":{
						"POSITION":33,
						"NORMAL":34
					},
					"indices":35,
					"material":10
				}
			]
		}
	],
	"accessors":[
		{
			"bufferView":0,
			"componentType":5126,
			"count":66584,
			"max":[
				4.049410343170166,
				5.141207218170166,
				10.494388580322266
			],
			"min":[
				-4.049332141876221,
				-5.144740104675293,
				7.473517417907715
			],
			"type":"VEC3"
		},
		{
			"bufferView":1,
			"componentType":5126,
			"count":66584,
			"type":"VEC3"
		},
		{
			"bufferView":2,
			"componentType":5125,
			"count":378714,
			"type":"SCALAR"
		},
		{
			"bufferView":3,
			"componentType":5126,
			"count":66009,
			"max":[
				8.363882064819336,
				5.144759178161621,
				10.552678108215332
			],
			"min":[
				-6.1206231117248535,
				-5.14118766784668,
				4.447574615478516
			],
			"type":"VEC3"
		},
		{
			"bufferView":4,
			"componentType":5126,
			"count":66009,
			"type":"VEC3"
		},
		{
			"bufferView":5,
			"componentType":5125,
			"count":378705,
			"type":"SCALAR"
		},
		{
			"bufferView":6,
			"componentType":5126,
			"count":66671,
			"max":[
				-5.898052215576172,
				5.144759178161621,
				4.048081874847412
			],
			"min":[
				-10.552599906921387,
				-2.8185057640075684,
				-6.895052909851074
			],
			"type":"VEC3"
		},
		{
			"bufferView":7,
			"componentType":5126,
			"count":66671,
			"type":"VEC3"
		},
		{
			"bufferView":8,
			"componentType":5125,
			"count":373962,
			"type":"SCALAR"
		},
		{
			"bufferView":9,
			"componentType":5126,
			"count":63871,
			"max":[
				-5.907914638519287,
				2.8185250759124756,
				6.895130634307861
			],
			"min":[
				-10.552599906921387,
				-5.144740104675293,
				-2.351569175720215
			],
			"type":"VEC3"
		},
		{
			"bufferView":10,
			"componentType":5126,
			"count":63871,
			"type":"VEC3"
		},
		{
			"bufferView":11,
			"componentType":5123,
			"count":359574,
			"type":"SCALAR"
		},
		{
			"bufferView":12,
			"componentType":5126,
			"count":66593,
			"max":[
				-0.2298382967710495,
				5.144759178161621,
				10.552678108215332
			],
			"min":[
				-9.306097984313965,
				-5.14118766784668,
				2.0475995540618896
			],
			"type":"VEC3"
		},
		{
			"bufferView":13,
			"componentType":5126,
			"count":66593,
			"type":"VEC3"
		},
		{
			"bufferView":14,
			"componentType":5125,
			"count":377184,
			"type":"SCALAR"
		},
		{
			"bufferView":15,
			"componentType":5126,
			"count":66056,
			"max":[
				6.895130634307861,
				5.141207218170166,
				8.363882064819336
			],
			"min":[
				-9.707281112670898,
				-5.14118766784668,
				-10.281440734863281
			],
			"type":"VEC3"
		},
		{
			"bufferView":16,
			"componentType":5126,
			"count":66056,
			"type":"VEC3"
		},
		{
			"bufferView":17,
			"componentType":5125,
			"count":372336,
			"type":"SCALAR"
		},
		{
			"bufferView":18,
			"componentType":5126,
			"count":66010,
			"max":[
				9.707359313964844,
				5.144759178161621,
				-2.0475215911865234
			],
			"min":[
				0.22991633415222168,
				-2.8185057640075684,
				-10.552599906921387
			],
			"type":"VEC3"
		},
		{
			"bufferView":19,
			"componentType":5126,
			"count":66010,
			"type":"VEC3"
		},
		{
			"bufferView":20,
			"componentType":5125,
			"count":371856,
			"type":"SCALAR"
		},
		{
			"bufferView":21,
			"componentType":5126,
			"count":65971,
			"max":[
				10.552678108215332,
				5.141207218170166,
				6.895130634307861
			],
			"min":[
				4.447574615478516,
				-5.144740104675293,
				-8.360905647277832
			],
			"type":"VEC3"
		},
		{
			"bufferView":22,
			"componentType":5126,
			"count":65971,
			"type":"VEC3"
		},
		{
			"bufferView":23,
			"componentType":5125,
			"count":370824,
			"type":"SCALAR"
		},
		{
			"bufferView":24,
			"componentType":5126,
			"count":66243,
			"max":[
				10.552678108215332,
				5.144739627838135,
				8.363882064819336
			],
			"min":[
				4.447574615478516,
				-5.144740104675293,
				-2.3384056091308594
			],
			"type":"VEC3"
		},
		{
			"bufferView":25,
			"componentType":5126,
			"count":66243,
			"type":"VEC3"
		},
		{
			"bufferView":26,
			"componentType":5125,
			"count":370284,
			"type":"SCALAR"
		},
		{
			"bufferView":27,
			"componentType":5126,
			"count":66372,
			"max":[
				10.535730361938477,
				5.144759178161621,
				2.351647138595581
			],
			"min":[
				-4.04293155670166,
				-5.144740104675293,
				-9.99997615814209
			],
			"type":"VEC3"
		},
		{
			"bufferView":28,
			"componentType":5126,
			"count":66372,
			"type":"VEC3"
		},
		{
			"bufferView":29,
			"componentType":5125,
			"count":364128,
			"type":"SCALAR"
		},
		{
			"bufferView":30,
			"componentType":5126,
			"count":66486,
			"max":[
				2.351647138595581,
				5.144759178161621,
				-5.497190952301025
			],
			"min":[
				-7.764001369476318,
				-2.8185057640075684,
				-10.552599906921387
			],
			"type":"VEC3"
		},
		{
			"bufferView":31,
			"componentType":5126,
			"count":66486,
			"type":"VEC3"
		},
		{
			"bufferView":32,
			"componentType":5125,
			"count":374445,
			"type":"SCALAR"
		},
		{
			"bufferView":33,
			"componentType":5126,
			"count":66429,
			"max":[
				-2.0475215911865234,
				2.8185250759124756,
				-1.2094485759735107
			],
			"min":[
				-10.406473159790039,
				-5.144740104675293,
				-9.707281112670898
			],
			"type":"VEC3"
		},
		{
			"bufferView":34,
			"componentType":5126,
			"count":66429,
			"type":"VEC3"
		},
		{
			"bufferView":35,
			"componentType":5125,
			"count":374052,
			"type":"SCALAR"
		}
	],
	"bufferViews":[
		{
			"buffer":0,
			"byteLength":799008,
			"byteOffset":0,
			"target":34962
		},
		{
			"buffer":0,
			"byteLength":799008,
			"byteOffset":799008,
			"target":34962
		},
		{
			"buffer":0,
			"byteLength":1514856,
			"byteOffset":1598016,
			"target":34963
		},
		{
			"buffer":0,
			"byteLength":792108,
			"byteOffset":3112872,
			"target":34962
		},
		{
			"buffer":0,
			"byteLength":792108,
			"byteOffset":3904980,
			"target":34962
		},
		{
			"buffer":0,
			"byteLength":1514820,
			"byteOffset":4697088,
			"target":34963
		},
		{
			"buffer":0,
			"byteLength":800052,
			"byteOffset":6211908,
			"target":34962
		},
		{
			"buffer":0,
			"byteLength":800052,
			"byteOffset":7011960,
			"target":34962
		},
		{
			"buffer":0,
			"byteLength":1495848,
			"byteOffset":7812012,
			"target":34963
		},
		{
			"buffer":0,
			"byteLength":766452,
			"byteOffset":9307860,
			"target":34962
		},
		{
			"buffer":0,
			"byteLength":766452,
			"byteOffset":10074312,
			"target":34962
		},
		{
			"buffer":0,
			"byteLength":719148,
			"byteOffset":10840764,
			"target":34963
		},
		{
			"buffer":0,
			"byteLength":799116,
			"byteOffset":11559912,
			"target":34962
		},
		{
			"buffer":0,
			"byteLength":799116,
			"byteOffset":12359028,
			"target":34962
		},
		{
			"buffer":0,
			"byteLength":1508736,
			"byteOffset":13158144,
			"target":34963
		},
		{
			"buffer":0,
			"byteLength":792672,
			"byteOffset":14666880,
			"target":34962
		},
		{
			"buffer":0,
			"byteLength":792672,
			"byteOffset":15459552,
			"target":34962
		},
		{
			"buffer":0,
			"byteLength":1489344,
			"byteOffset":16252224,
			"target":34963
		},
		{
			"buffer":0,
			"byteLength":792120,
			"byteOffset":17741568,
			"target":34962
		},
		{
			"buffer":0,
			"byteLength":792120,
			"byteOffset":18533688,
			"target":34962
		},
		{
			"buffer":0,
			"byteLength":1487424,
			"byteOffset":19325808,
			"target":34963
		},
		{
			"buffer":0,
			"byteLength":791652,
			"byteOffset":20813232,
			"target":34962
		},
		{
			"buffer":0,
			"byteLength":791652,
			"byteOffset":21604884,
			"target":34962
		},
		{
			"buffer":0,
			"byteLength":1483296,
			"byteOffset":22396536,
			"target":34963
		},
		{
			"buffer":0,
			"byteLength":794916,
			"byteOffset":23879832,
			"target":34962
		},
		{
			"buffer":0,
			"byteLength":794916,
			"byteOffset":24674748,
			"target":34962
		},
		{
			"buffer":0,
			"byteLength":1481136,
			"byteOffset":25469664,
			"target":34963
		},
		{
			"buffer":0,
			"byteLength":796464,
			"byteOffset":26950800,
			"target":34962
		},
		{
			"buffer":0,
			"byteLength":796464,
			"byteOffset":27747264,
			"target":34962
		},
		{
			"buffer":0,
			"byteLength":1456512,
			"byteOffset":28543728,
			"target":34963
		},
		{
			"buffer":0,
			"byteLength":797832,
			"byteOffset":30000240,
			"target":34962
		},
		{
			"buffer":0,
			"byteLength":797832,
			"byteOffset":30798072,
			"target":34962
		},
		{
			"buffer":0,
			"byteLength":1497780,
			"byteOffset":31595904,
			"target":34963
		},
		{
			"buffer":0,
			"byteLength":797148,
			"byteOffset":33093684,
			"target":34962
		},
		{
			"buffer":0,
			"byteLength":797148,
			"byteOffset":33890832,
			"target":34962
		},
		{
			"buffer":0,
			"byteLength":1496208,
			"byteOffset":34687980,
			"target":34963
		}
	],
	"buffers":[
		{
			"byteLength":36184188,
			"uri":"chrome_heart_ring_Textured.bin"
		}
	]
}
