{
	"asset":{
		"generator":"Khronos glTF Blender I/O v4.3.47",
		"version":"2.0"
	},
	"scene":0,
	"scenes":[
		{
			"name":"Scene",
			"nodes":[
				6
			]
		}
	],
	"nodes":[
		{
			"mesh":0,
			"name":"Object_6"
		},
		{
			"children":[
				0
			],
			"name":"Gear.001_3",
			"rotation":[
				0,
				-0.00015039433492347598,
				0,
				1
			],
			"translation":[
				-1.010273814201355,
				0,
				-1.724302053451538
			]
		},
		{
			"mesh":1,
			"name":"Object_4"
		},
		{
			"children":[
				2
			],
			"name":"Gear_2"
		},
		{
			"children":[
				1,
				3
			],
			"name":"GLTF_SceneRootNode",
			"rotation":[
				0.70710688829422,
				0,
				0,
				0.7071066498756409
			]
		},
		{
			"children":[
				4
			],
			"name":"root"
		},
		{
			"children":[
				5
			],
			"name":"Sketchfab_model",
			"rotation":[
				-0.70710688829422,
				0,
				0,
				0.7071066498756409
			]
		}
	],
	"animations":[
		{
			"channels":[
				{
					"sampler":0,
					"target":{
						"node":1,
						"path":"rotation"
					}
				},
				{
					"sampler":1,
					"target":{
						"node":3,
						"path":"rotation"
					}
				}
			],
			"name":"Animation",
			"samplers":[
				{
					"input":6,
					"interpolation":"LINEAR",
					"output":7
				},
				{
					"input":6,
					"interpolation":"LINEAR",
					"output":8
				}
			]
		}
	],
	"materials":[
		{
			"alphaMode":"BLEND",
			"doubleSided":true,
			"name":"material_0",
			"pbrMetallicRoughness":{
				"baseColorFactor":[
					0.9573261737823486,
					0.9573261737823486,
					0.9573261737823486,
					1.5
				],
				"roughnessFactor":0.20000000298023224
			}
		},
		{
			"doubleSided":true,
			"name":"Material.001",
			"pbrMetallicRoughness":{
				"roughnessFactor":0.15803110599517822
			}
		}
	],
	"meshes":[
		{
			"name":"Object_1",
			"primitives":[
				{
					"attributes":{
						"POSITION":0,
						"NORMAL":1
					},
					"indices":2,
					"material":0
				}
			]
		},
		{
			"name":"Object_0",
			"primitives":[
				{
					"attributes":{
						"POSITION":3,
						"NORMAL":4
					},
					"indices":5,
					"material":1
				}
			]
		}
	],
	"accessors":[
		{
			"bufferView":0,
			"componentType":5126,
			"count":730,
			"max":[
				1.099859356880188,
				0.20000000298023224,
				1.099859356880188
			],
			"min":[
				-1.099859356880188,
				-0.20000000298023224,
				-1.099859356880188
			],
			"type":"VEC3"
		},
		{
			"bufferView":1,
			"componentType":5126,
			"count":730,
			"type":"VEC3"
		},
		{
			"bufferView":2,
			"componentType":5123,
			"count":1728,
			"type":"SCALAR"
		},
		{
			"bufferView":3,
			"componentType":5126,
			"count":720,
			"max":[
				1.0852446556091309,
				0.20000000298023224,
				1.0852446556091309
			],
			"min":[
				-1.0852446556091309,
				-0.20000000298023224,
				-1.0852446556091309
			],
			"type":"VEC3"
		},
		{
			"bufferView":4,
			"componentType":5126,
			"count":720,
			"type":"VEC3"
		},
		{
			"bufferView":5,
			"componentType":5123,
			"count":1728,
			"type":"SCALAR"
		},
		{
			"bufferView":6,
			"componentType":5126,
			"count":250,
			"max":[
				10.416666666666666
			],
			"min":[
				0.041666666666666664
			],
			"type":"SCALAR"
		},
		{
			"bufferView":7,
			"componentType":5126,
			"count":250,
			"type":"VEC4"
		},
		{
			"bufferView":8,
			"componentType":5126,
			"count":250,
			"type":"VEC4"
		}
	],
	"bufferViews":[
		{
			"buffer":0,
			"byteLength":8760,
			"byteOffset":0,
			"target":34962
		},
		{
			"buffer":0,
			"byteLength":8760,
			"byteOffset":8760,
			"target":34962
		},
		{
			"buffer":0,
			"byteLength":3456,
			"byteOffset":17520,
			"target":34963
		},
		{
			"buffer":0,
			"byteLength":8640,
			"byteOffset":20976,
			"target":34962
		},
		{
			"buffer":0,
			"byteLength":8640,
			"byteOffset":29616,
			"target":34962
		},
		{
			"buffer":0,
			"byteLength":3456,
			"byteOffset":38256,
			"target":34963
		},
		{
			"buffer":0,
			"byteLength":1000,
			"byteOffset":41712
		},
		{
			"buffer":0,
			"byteLength":4000,
			"byteOffset":42712
		},
		{
			"buffer":0,
			"byteLength":4000,
			"byteOffset":46712
		}
	],
	"buffers":[
		{
			"byteLength":50712,
			"uri":"scene.bin"
		}
	]
}
